<?xml version="1.0" standalone="no"?>
<!DOCTYPE svg PUBLIC "-//W3C//DTD SVG 20010904//EN"
 "http://www.w3.org/TR/2001/REC-SVG-20010904/DTD/svg10.dtd">
<svg version="1.0" xmlns="http://www.w3.org/2000/svg"
 width="2480.000000pt" height="2480.000000pt" viewBox="0 0 2480.000000 2480.000000"
 preserveAspectRatio="xMidYMid meet">
<metadata>
Created by potrace 1.14, written by Peter Selinger 2001-2017
</metadata>
<g transform="translate(0.000000,2480.000000) scale(0.100000,-0.100000)"
fill="#000000" stroke="none">
<path d="M1713 22032 c-93 -33 -158 -94 -205 -191 -69 -141 -35 -313 81 -420
20 -18 64 -47 99 -63 55 -26 74 -30 145 -30 91 0 144 15 210 60 l42 30 1 -67
c2 -154 34 -261 118 -386 146 -217 421 -334 683 -289 285 50 506 270 561 559
11 61 4 221 -13 285 -63 238 -238 419 -475 491 -61 19 -97 23 -195 23 -107 -1
-130 -4 -208 -31 -48 -17 -113 -46 -144 -64 -55 -33 -203 -171 -203 -190 0
-21 -16 -7 -18 16 -3 45 -51 132 -97 178 -68 69 -141 100 -244 104 -65 3 -99
-1 -138 -15z"/>
<path d="M23343 22032 c-67 -24 -122 -62 -163 -114 -33 -40 -79 -139 -80 -168
0 -8 -15 3 -32 25 -111 135 -264 228 -415 252 -73 11 -221 8 -283 -7 -107 -25
-231 -92 -314 -169 -93 -88 -173 -229 -199 -356 -14 -67 -15 -228 -3 -285 38
-174 168 -358 316 -444 34 -20 63 -36 64 -36 2 0 21 -8 42 -17 22 -9 45 -18
52 -20 6 -2 18 -5 25 -6 115 -31 292 -24 403 16 269 98 449 347 457 633 l2 80
42 -28 c247 -167 579 18 567 317 -5 129 -85 252 -201 310 -76 38 -200 45 -280
17z"/>
<path d="M985 21846 c-185 -43 -320 -216 -316 -401 4 -155 72 -271 212 -357
81 -51 246 -60 349 -20 104 40 211 160 239 267 20 79 18 188 -6 245 -3 8 -7
17 -8 20 -8 30 -55 98 -95 138 -98 96 -244 138 -375 108z"/>
<path d="M24178 21855 c-2 -2 -20 -6 -41 -9 -21 -3 -62 -17 -91 -31 -216 -102
-296 -368 -173 -577 132 -224 445 -265 633 -82 221 215 130 587 -166 683 -32
10 -156 22 -162 16z"/>
<path d="M3840 21634 c-208 -56 -336 -274 -286 -487 64 -269 379 -399 611
-251 101 64 165 158 186 271 55 297 -217 546 -511 467z"/>
<path d="M21238 21635 c-111 -30 -201 -105 -253 -209 -141 -282 67 -604 382
-591 206 9 374 174 387 381 4 62 -16 159 -44 213 -85 167 -290 256 -472 206z"/>
<path d="M4772 21139 c-105 -20 -223 -102 -275 -193 -58 -100 -71 -247 -29
-353 59 -153 204 -257 368 -262 242 -8 437 196 419 439 -18 241 -244 414 -483
369z"/>
<path d="M20409 21145 c-2 -1 -20 -5 -40 -8 -60 -8 -146 -53 -203 -107 -130
-123 -161 -324 -75 -492 30 -60 116 -138 189 -172 59 -27 75 -30 165 -30 120
0 183 21 261 86 102 86 150 188 148 318 -3 221 -161 390 -379 404 -34 3 -65 3
-66 1z"/>
<path d="M1092 20984 c-286 -77 -458 -354 -398 -642 66 -317 398 -507 704
-403 231 78 371 272 370 515 0 161 -46 274 -159 387 -133 134 -340 191 -517
143z"/>
<path d="M23936 20984 c-203 -53 -366 -229 -401 -431 -31 -175 19 -340 142
-473 103 -111 236 -168 393 -168 192 0 355 89 462 253 109 167 111 406 4 574
-74 118 -199 211 -327 245 -67 17 -208 18 -273 0z"/>
<path d="M2067 20789 c-157 -24 -268 -151 -270 -311 -3 -234 229 -384 453
-291 41 17 119 92 141 135 30 58 33 75 33 158 0 60 -5 86 -25 130 -60 128
-193 199 -332 179z"/>
<path d="M23100 20783 c-148 -59 -219 -149 -228 -289 -6 -95 17 -160 80 -230
132 -144 339 -141 477 6 101 108 95 311 -13 422 -64 67 -124 92 -221 95 -44 1
-87 0 -95 -4z"/>
<path d="M3762 20709 c-180 -46 -319 -168 -382 -336 -130 -347 118 -721 487
-737 365 -15 637 318 552 678 -40 171 -187 329 -359 385 -92 30 -204 34 -298
10z"/>
<path d="M21292 20714 c-183 -39 -343 -181 -403 -361 -24 -73 -33 -202 -19
-268 16 -76 19 -85 49 -147 63 -133 211 -254 346 -284 94 -21 158 -24 242 -9
24 3 45 7 48 6 13 -1 123 53 161 80 108 74 191 194 224 325 14 58 14 189 -1
249 -73 292 -354 469 -647 409z"/>
<path d="M365 20581 c-185 -48 -237 -293 -85 -401 189 -135 436 61 343 271
-45 100 -157 156 -258 130z"/>
<path d="M2708 20574 c-313 -74 -422 -460 -194 -686 51 -51 153 -106 204 -110
39 -3 33 -14 -15 -24 -21 -4 -40 -8 -43 -9 -25 -5 -88 -44 -125 -77 -88 -78
-132 -165 -140 -280 -14 -200 112 -374 308 -426 37 -11 161 -10 204 1 83 21
196 106 242 183 100 167 67 386 -77 516 -49 44 -123 84 -175 93 -20 4 -37 12
-37 18 0 6 3 8 6 4 6 -6 95 23 140 46 41 21 107 87 140 138 105 167 72 392
-77 523 -99 87 -234 120 -361 90z"/>
<path d="M5483 20573 c-58 -20 -120 -84 -137 -143 -45 -152 61 -294 219 -293
129 1 218 92 219 224 0 57 -4 74 -30 115 -56 92 -169 132 -271 97z"/>
<path d="M19668 20576 c-98 -36 -152 -107 -157 -208 -9 -167 178 -286 327
-209 139 72 167 250 57 365 -53 54 -157 78 -227 52z"/>
<path d="M22403 20574 c-74 -19 -128 -49 -184 -101 -93 -87 -135 -195 -126
-325 12 -172 125 -312 295 -363 25 -8 49 -12 54 -9 4 3 8 1 8 -4 0 -5 -17 -12
-38 -14 -60 -8 -144 -55 -202 -111 -217 -214 -125 -587 168 -677 153 -47 311
-5 419 113 145 157 145 399 -1 555 -51 54 -147 108 -216 121 l-45 8 40 8 c22
4 67 20 100 36 251 120 309 451 113 651 -100 103 -250 147 -385 112z"/>
<path d="M6177 20384 c-1 -1 -25 -4 -54 -8 -204 -24 -382 -176 -453 -386 -19
-55 -22 -217 -5 -280 50 -189 175 -327 356 -391 78 -28 258 -33 324 -9 22 8
42 15 45 15 23 6 69 30 108 57 164 113 244 271 238 466 -4 119 -9 139 -51 227
-75 157 -239 279 -405 301 -52 7 -100 11 -103 8z"/>
<path d="M19045 20379 c-137 -18 -235 -66 -330 -163 -184 -187 -211 -460 -66
-683 122 -188 369 -283 590 -225 55 14 165 64 186 86 6 6 27 25 46 41 108 96
167 222 174 375 11 241 -130 455 -356 539 -67 25 -178 38 -244 30z"/>
<path d="M1620 20016 c-98 -28 -175 -73 -240 -141 -87 -89 -136 -184 -155
-304 l-7 -44 -16 34 c-9 19 -39 57 -67 85 -158 159 -424 159 -576 -1 -60 -62
-77 -91 -101 -169 -50 -165 13 -355 151 -450 56 -39 155 -73 221 -75 191 -7
365 122 411 304 l13 49 9 -29 c16 -50 83 -140 142 -192 52 -47 102 -77 170
-103 l30 -12 -49 -19 c-142 -57 -257 -182 -312 -339 -22 -64 -27 -270 -7 -311
6 -13 18 -43 27 -67 87 -231 374 -381 621 -322 142 34 281 139 354 265 39 68
40 69 47 40 16 -63 85 -167 150 -224 66 -58 128 -92 214 -117 41 -12 68 -24
60 -27 -8 -3 -45 -14 -82 -26 -308 -96 -461 -453 -320 -751 14 -30 31 -61 36
-67 6 -7 24 -30 41 -51 66 -85 200 -164 311 -182 215 -36 418 43 542 211 235
318 68 762 -322 858 l-71 18 58 6 c173 21 351 176 414 360 99 295 -78 625
-377 702 -89 23 -242 17 -325 -13 -119 -44 -227 -135 -288 -244 -18 -32 -35
-58 -38 -58 -3 0 -11 17 -17 38 -35 114 -169 250 -297 300 l-46 18 75 37 c90
45 166 111 217 191 64 97 81 156 85 281 3 96 0 119 -22 183 -77 227 -264 368
-499 377 -70 2 -107 -2 -165 -19z"/>
<path d="M4965 20028 c-87 -16 -207 -81 -275 -149 -112 -114 -159 -227 -161
-386 -2 -210 109 -390 300 -489 153 -78 346 -75 505 9 82 43 183 147 224 228
149 305 5 660 -314 769 -68 24 -204 33 -279 18z"/>
<path d="M20100 20024 c-135 -32 -276 -136 -344 -254 -59 -103 -71 -152 -70
-285 1 -105 5 -128 27 -184 59 -143 150 -240 282 -302 298 -138 638 9 752 326
28 79 24 270 -7 350 -65 168 -184 282 -355 340 -64 21 -214 26 -285 9z"/>
<path d="M23413 20025 c-132 -28 -257 -114 -333 -227 -189 -284 -79 -666 233
-806 l58 -26 -44 -16 c-119 -45 -227 -148 -286 -272 l-37 -77 -14 32 c-49 114
-165 221 -300 276 -67 28 -217 39 -304 22 -127 -24 -265 -118 -345 -234 -75
-110 -106 -284 -75 -419 31 -134 123 -267 235 -339 57 -36 167 -79 205 -79 14
0 22 -4 19 -10 -3 -5 -18 -10 -31 -10 -36 0 -150 -47 -203 -83 -76 -52 -140
-127 -181 -212 -47 -98 -57 -147 -55 -256 7 -291 249 -529 538 -529 267 0 495
189 543 450 38 210 -68 449 -248 558 -58 34 -152 71 -193 74 -40 4 -29 13 30
25 148 31 292 147 362 291 l40 81 24 -52 c50 -108 203 -233 324 -266 83 -22
183 -29 240 -17 104 21 172 50 245 105 322 242 277 746 -82 919 -42 20 -77 41
-77 45 -1 5 3 6 8 2 5 -3 12 -1 16 5 3 5 13 10 21 10 22 0 146 84 180 122 78
88 118 165 139 267 16 73 13 201 -5 259 -58 186 -207 332 -390 382 -64 18
-184 20 -257 5z"/>
<path d="M7122 19628 c-344 -39 -562 -391 -448 -720 47 -133 147 -247 267
-306 99 -47 141 -57 249 -56 155 0 267 45 372 147 91 89 133 165 163 291 10
46 7 179 -6 232 -37 155 -151 295 -293 363 -101 48 -191 62 -304 49z"/>
<path d="M18098 19635 c-2 -1 -28 -5 -58 -8 -168 -15 -339 -135 -416 -292
-135 -276 -26 -605 244 -736 299 -144 648 0 759 314 46 131 33 302 -33 426
-74 140 -211 246 -359 279 -51 11 -132 21 -137 17z"/>
<path d="M3833 19544 c-182 -38 -311 -192 -318 -382 -6 -167 80 -309 230 -382
33 -16 74 -31 90 -34 17 -2 32 -5 35 -6 3 -1 -19 -8 -47 -15 -150 -41 -260
-150 -299 -297 -17 -65 -11 -181 12 -238 80 -201 283 -307 485 -256 341 88
418 536 125 735 -45 31 -125 61 -165 62 -16 0 -2 7 35 18 269 77 389 350 261
594 -82 157 -263 239 -444 201z"/>
<path d="M21300 19548 c-122 -21 -254 -129 -300 -246 -34 -86 -38 -199 -10
-282 48 -143 157 -239 308 -274 l57 -13 -52 -6 c-116 -14 -237 -107 -296 -227
-29 -60 -32 -73 -32 -170 0 -97 2 -110 31 -170 63 -133 178 -217 324 -236 57
-8 64 -14 17 -14 -62 0 -139 -21 -214 -57 -262 -127 -373 -448 -249 -719 45
-98 143 -201 235 -249 50 -25 140 -55 168 -55 14 0 21 -4 18 -10 -3 -5 -15
-10 -26 -10 -35 0 -141 -40 -194 -75 -114 -73 -209 -205 -239 -333 -14 -60
-15 -192 -2 -257 10 -50 83 -188 123 -231 115 -126 261 -188 425 -183 431 14
674 482 439 846 -69 107 -195 197 -311 223 -86 19 -100 26 -57 28 78 3 249 92
313 163 157 175 190 413 87 627 -36 74 -159 198 -233 234 -63 31 -158 58 -210
59 -29 0 -25 3 25 14 80 17 108 29 162 67 64 43 98 83 133 153 81 163 52 344
-77 473 -54 54 -138 101 -203 112 l-35 6 60 18 c312 93 404 475 166 693 -94
87 -222 124 -351 101z"/>
<path d="M6095 19073 c-198 -45 -352 -179 -416 -363 -19 -52 -23 -87 -23 -175
-1 -66 5 -126 13 -150 66 -198 214 -339 405 -384 62 -15 195 -12 260 5 187 49
341 204 390 392 18 67 18 207 0 274 -49 187 -206 343 -394 391 -52 14 -192 19
-235 10z"/>
<path d="M18948 19057 c-167 -51 -297 -170 -355 -327 -55 -146 -46 -302 24
-448 36 -74 151 -191 223 -227 160 -81 330 -86 500 -13 88 38 206 153 246 239
8 19 20 42 25 52 20 36 38 155 35 227 -11 239 -176 442 -411 504 -83 22 -199
19 -287 -7z"/>
<path d="M4992 18859 c-197 -37 -343 -233 -326 -437 16 -173 146 -323 314
-361 38 -9 74 -26 40 -20 -27 5 -83 -12 -142 -43 -220 -116 -281 -418 -124
-611 55 -68 121 -112 215 -141 68 -22 72 -24 39 -25 -48 -1 -36 1 -115 -27
-144 -52 -253 -152 -317 -289 -20 -44 -28 -68 -43 -135 -8 -35 -3 -173 8 -217
37 -156 148 -293 293 -363 44 -21 104 -43 131 -48 l50 -8 -58 -13 c-190 -41
-353 -196 -411 -391 -21 -70 -22 -208 -2 -283 31 -115 108 -229 197 -294 l49
-35 -42 -28 c-52 -33 -130 -110 -169 -166 -97 -142 -124 -358 -66 -524 27 -77
95 -185 144 -231 54 -50 143 -107 204 -129 57 -22 60 -24 38 -33 -13 -5 -29
-10 -34 -11 -32 -5 -132 -73 -179 -122 -161 -163 -204 -403 -110 -611 117
-256 422 -382 686 -283 145 54 271 177 319 313 17 49 34 46 29 -5 0 -2 11 -36
24 -76 34 -100 75 -165 155 -243 116 -114 261 -170 431 -164 145 6 280 63 386
165 46 44 117 144 129 180 5 16 16 9 68 -43 215 -215 554 -215 771 -1 56 56
111 145 132 214 l18 59 30 -55 c52 -94 140 -185 226 -235 12 -7 11 -11 -10
-25 -55 -37 -150 -144 -179 -203 -80 -157 -80 -344 -1 -500 16 -33 41 -72 56
-88 14 -15 31 -35 38 -44 20 -28 110 -92 164 -116 l54 -24 -52 -27 c-252 -135
-345 -436 -213 -686 37 -68 135 -165 202 -197 l53 -27 -53 -27 c-138 -68 -226
-168 -279 -312 l-27 -76 -7 36 c-4 19 -23 69 -43 109 -49 99 -142 190 -246
242 l-78 38 58 27 c157 75 269 242 277 417 8 145 -42 280 -139 378 -67 67
-124 102 -218 132 -40 12 -62 23 -49 23 38 2 114 46 166 98 154 151 141 399
-27 537 -184 151 -458 86 -560 -133 -57 -121 -36 -280 49 -379 45 -53 107 -96
163 -113 38 -11 41 -14 21 -21 -12 -4 -32 -10 -45 -12 -54 -10 -143 -65 -206
-126 -73 -72 -121 -157 -140 -248 -15 -73 -7 -214 17 -272 48 -122 140 -224
251 -280 62 -31 65 -34 41 -41 -55 -15 -148 -73 -203 -127 -249 -249 -204
-662 92 -850 24 -15 43 -30 43 -34 0 -4 -17 -16 -37 -27 -74 -39 -174 -149
-210 -231 -76 -173 -62 -376 35 -526 54 -83 127 -151 202 -189 119 -60 244
-78 370 -51 191 40 342 174 404 357 l24 72 12 -44 c49 -185 214 -343 402 -386
18 -4 80 -7 138 -7 88 1 116 5 173 27 147 57 255 162 316 306 29 69 32 81 38
174 11 160 -43 304 -156 416 -36 37 -85 76 -108 87 l-41 21 63 42 c253 166
321 509 152 761 -46 68 -131 143 -197 176 -33 16 -60 31 -60 34 0 3 28 21 61
40 177 101 272 314 233 522 -29 154 -124 278 -268 351 l-49 25 46 20 c81 36
142 84 218 172 33 38 88 159 99 220 23 122 5 251 -51 361 -29 59 -138 179
-183 205 -18 10 -15 14 35 51 29 22 69 55 88 74 43 44 107 140 122 186 l12 36
40 -79 c44 -85 154 -206 215 -235 l32 -16 -44 -31 c-212 -153 -282 -448 -164
-690 46 -93 150 -196 246 -242 70 -34 71 -35 45 -44 -85 -28 -202 -137 -251
-234 -77 -156 -68 -345 27 -497 34 -55 119 -133 181 -166 l52 -27 -53 -26
c-184 -93 -298 -270 -304 -473 -2 -48 3 -111 11 -145 30 -129 132 -271 239
-333 25 -15 45 -30 45 -34 0 -4 -18 -18 -40 -30 -97 -54 -206 -197 -236 -310
-80 -292 79 -586 365 -678 65 -21 224 -25 289 -7 152 41 272 134 358 280 10
17 13 15 28 -18 25 -52 117 -150 176 -188 211 -135 488 -112 669 55 114 106
173 236 174 385 0 47 -2 99 -5 115 -32 156 -125 291 -251 364 l-48 28 48 31
c192 124 287 341 251 568 -7 42 -33 112 -64 174 -29 57 -152 173 -221 207 -45
23 -58 34 -50 42 6 6 16 11 22 11 18 0 122 84 160 130 105 125 141 312 91 470
-37 115 -138 235 -242 287 l-62 30 39 17 c65 29 156 95 200 144 46 53 113 186
124 247 12 70 14 148 4 200 -6 28 -12 61 -15 74 -16 80 -128 235 -206 285 -36
23 -35 32 2 51 48 25 153 134 186 192 16 29 31 53 34 53 3 0 15 -19 28 -43 45
-85 148 -190 231 -236 13 -8 11 -13 -14 -33 -97 -75 -171 -183 -199 -293 -21
-83 -15 -241 12 -313 44 -114 110 -199 202 -261 82 -54 166 -85 250 -91 14 -1
-2 -8 -37 -16 -365 -80 -493 -528 -223 -778 151 -139 362 -162 545 -59 97 54
193 192 214 305 45 247 -113 478 -365 532 -47 10 -59 15 -36 15 42 1 34 0 94
18 143 42 263 140 330 267 l35 69 -1 -44 c-3 -60 27 -178 66 -258 34 -72 159
-207 214 -231 l31 -14 -31 -25 c-17 -14 -39 -33 -49 -41 -41 -33 -107 -140
-131 -211 -20 -62 -24 -90 -22 -169 4 -114 6 -124 49 -215 46 -95 132 -181
229 -229 40 -20 87 -38 103 -41 94 -16 101 -20 41 -28 -99 -14 -225 -98 -282
-189 -64 -101 -85 -225 -57 -342 27 -119 116 -231 223 -282 l57 -27 -59 -31
c-246 -127 -299 -472 -102 -671 252 -254 690 -101 727 255 17 165 -84 348
-231 420 l-51 26 52 24 c92 43 205 176 223 264 25 116 25 162 -2 255 -44 154
-192 280 -354 303 -17 3 -7 8 35 17 240 53 401 242 410 481 6 170 -58 310
-194 423 -18 15 -32 29 -30 31 2 2 32 25 66 50 171 125 260 342 229 556 -21
138 -107 284 -218 370 l-43 33 66 66 c87 87 126 159 156 281 11 45 9 180 -4
234 -30 131 -118 257 -230 332 -62 41 -169 84 -208 84 -14 0 -25 5 -25 10 0 6
3 9 8 8 19 -5 94 17 160 48 120 55 240 190 281 315 20 61 23 81 26 164 5 155
-48 288 -160 400 -106 105 -216 154 -366 160 -235 11 -444 -128 -535 -356 -29
-72 -40 -217 -24 -304 22 -113 112 -252 213 -328 51 -39 159 -88 207 -94 52
-7 51 -19 -2 -28 -75 -13 -186 -70 -254 -131 -11 -11 -39 -43 -62 -72 l-41
-52 -6 47 c-36 279 -257 497 -540 533 -5 0 8 10 29 21 21 12 60 42 87 69 161
161 158 426 -7 581 -142 133 -349 150 -511 42 -82 -54 -144 -141 -163 -227 -6
-30 -7 -29 -18 21 -34 153 -125 282 -272 385 -24 17 -25 18 -5 30 104 63 212
227 233 352 41 259 -92 506 -327 605 -78 33 -85 34 -211 35 -98 1 -125 -3
-180 -23 -121 -44 -208 -114 -279 -222 l-38 -57 -31 53 c-41 68 -138 158 -211
195 -64 32 -169 62 -184 53 -6 -3 -7 -1 -4 4 4 6 26 13 49 17 75 12 202 81
266 144 289 285 184 765 -198 905 -231 85 -503 -7 -638 -215 -110 -170 -118
-394 -20 -566 80 -143 266 -269 403 -273 20 0 7 -7 -41 -19 -91 -24 -133 -41
-190 -80 -246 -170 -315 -502 -155 -747 42 -64 101 -126 144 -151 15 -9 27
-19 27 -22 0 -4 -21 -20 -47 -37 -84 -55 -173 -164 -212 -260 l-13 -33 -28 58
c-46 98 -119 181 -212 243 l-39 26 23 15 c89 60 189 195 214 288 20 77 24 104
24 162 0 150 -54 283 -160 388 -73 73 -153 119 -253 145 -37 10 -66 19 -65 21
2 1 23 5 47 9 95 14 228 93 301 179 42 50 77 111 102 177 30 84 33 253 5 341
-62 194 -244 350 -434 374 -59 7 -70 20 -20 22 77 3 196 75 257 156 115 152
108 369 -18 517 -54 64 -223 152 -255 132 -6 -3 -7 -1 -3 5 4 7 18 12 32 12
13 0 55 14 92 30 121 55 213 178 230 307 30 224 -114 422 -336 463 -58 10 -80
9 -167 -6 -81 -14 -180 -84 -235 -166 -167 -250 -30 -574 268 -634 26 -5 25
-14 -1 -14 -15 0 -29 0 -32 0 -3 0 -30 -11 -60 -25 -178 -78 -277 -267 -240
-460 29 -153 169 -286 331 -316 68 -13 84 -21 34 -18 -19 1 -60 -3 -90 -10
-193 -46 -362 -214 -405 -404 l-11 -52 -18 70 c-49 194 -200 347 -397 399 -49
13 -207 15 -249 3 -8 -2 -28 -7 -45 -12 -118 -31 -261 -150 -320 -264 l-18
-35 -18 36 c-26 52 -111 141 -173 182 -81 54 -195 88 -291 88 -116 0 -162 -11
-260 -60 -182 -93 -296 -285 -295 -496 2 -242 181 -464 418 -517 48 -11 69
-25 40 -26 -128 -6 -310 -130 -385 -263 -54 -97 -68 -153 -68 -280 0 -103 3
-122 29 -185 29 -70 97 -176 133 -205 10 -9 35 -28 55 -44 l37 -28 -57 -42
c-80 -59 -147 -137 -185 -216 l-33 -68 -33 68 c-38 80 -121 176 -192 222 l-51
32 24 19 c163 128 242 290 234 477 -11 251 -184 456 -431 511 l-58 13 64 13
c98 20 184 68 265 148 121 120 179 283 157 443 -14 102 -17 112 -53 185 -82
166 -263 290 -435 297 -37 2 -34 3 34 21 86 22 141 52 198 107 82 79 121 174
121 295 1 175 -101 318 -273 382 -36 14 -71 22 -77 19 -6 -4 -8 -3 -5 3 4 6
24 13 44 17 102 17 217 105 268 206 33 65 36 78 42 167 7 92 -22 191 -74 260
-46 60 -48 62 -103 100 -85 58 -203 82 -308 62z m2746 -2256 c-10 -39 47 -183
98 -251 87 -114 221 -194 348 -209 l50 -6 -72 -17 c-143 -34 -263 -114 -338
-227 -41 -62 -84 -167 -85 -211 0 -18 -8 -4 -23 43 -38 116 -67 167 -141 241
-156 158 -361 206 -573 133 -107 -37 -218 -126 -276 -223 l-34 -56 -25 42
c-71 121 -196 216 -332 251 l-84 22 62 12 c136 27 274 127 352 252 l32 53 32
-51 c68 -112 202 -208 335 -240 165 -40 361 12 489 129 87 79 141 176 173 308
2 6 6 12 9 12 3 0 4 -3 3 -7z m19 -1188 c19 -59 43 -103 88 -165 35 -47 44
-56 108 -104 l38 -29 -41 -27 c-82 -54 -200 -188 -200 -227 0 -31 -21 -17 -53
35 -43 69 -124 154 -184 192 l-43 27 39 27 c103 71 172 178 213 326 10 37 12
41 15 20 2 -14 11 -47 20 -75z m-952 -216 c32 -32 66 -61 76 -64 26 -9 24 -18
-9 -37 -42 -25 -122 -98 -152 -140 l-27 -37 -34 42 c-40 49 -86 92 -141 128
l-39 26 24 16 c43 28 128 118 159 169 l31 50 27 -47 c15 -26 54 -74 85 -106z
m3221 -18 c31 -28 60 -51 65 -51 21 0 6 -19 -43 -53 -57 -39 -103 -84 -133
-130 l-18 -29 -26 34 c-36 46 -98 104 -149 138 l-42 28 33 21 c46 28 117 106
151 164 l28 48 40 -60 c21 -33 64 -82 94 -110z m964 -708 c0 -24 57 -124 93
-164 45 -48 101 -85 168 -108 51 -18 53 -20 29 -29 -70 -27 -100 -43 -157 -85
-66 -49 -139 -134 -169 -198 -11 -21 -21 -39 -24 -39 -3 1 -21 28 -40 62 -19
33 -65 89 -102 123 l-68 62 51 43 c93 78 181 219 194 312 7 43 25 59 25 21z
m-5286 -210 c70 -103 218 -213 321 -238 17 -4 39 -9 50 -12 43 -10 178 -12
228 -3 138 26 266 104 359 217 l26 32 79 -78 c72 -72 151 -122 248 -156 16 -6
17 -8 5 -12 -114 -40 -236 -136 -296 -234 -36 -60 -36 -60 -52 -37 -33 50
-139 139 -206 173 -240 119 -500 78 -688 -109 -64 -63 -148 -204 -148 -247 0
-33 -16 -20 -18 15 -3 46 -36 139 -69 195 -58 100 -170 194 -275 231 l-49 17
59 21 c75 28 166 86 217 141 50 52 111 145 126 189 l11 34 23 -51 c13 -27 35
-67 49 -88z m3168 60 c23 -48 56 -92 114 -150 80 -80 81 -82 60 -97 -65 -44
-137 -132 -182 -225 -18 -36 -33 -59 -34 -51 0 19 -45 103 -78 150 -32 43 -92
103 -127 126 l-27 17 34 26 c78 61 156 160 187 239 8 17 15 32 17 32 1 0 18
-30 36 -67z m-1091 -58 c32 -48 106 -126 144 -151 l27 -17 -34 -26 c-99 -76
-177 -190 -208 -305 l-16 -59 -31 54 c-37 66 -113 146 -173 185 -55 35 -117
64 -139 65 -16 0 -15 1 79 43 108 48 214 142 272 245 31 54 32 55 43 31 5 -14
22 -43 36 -65z m2196 -92 c56 -57 82 -88 72 -91 -8 -2 -47 -38 -88 -80 -51
-52 -76 -72 -79 -62 -3 8 -38 48 -79 88 l-75 74 24 16 c31 21 128 121 128 133
0 17 9 9 97 -78z m2125 -1093 c37 -66 98 -136 143 -166 l25 -16 -38 -27 c-63
-46 -136 -135 -174 -210 l-35 -72 -2 48 c-3 140 -92 313 -200 389 -22 16 -41
32 -41 35 0 3 10 11 23 16 54 26 166 135 200 195 l21 38 21 -82 c11 -46 37
-112 57 -148z m-2114 92 c30 -29 68 -60 83 -68 16 -8 29 -18 29 -22 0 -5 -20
-23 -44 -42 -50 -37 -121 -119 -144 -167 l-15 -31 -38 56 c-45 69 -80 108
-136 151 l-43 33 53 34 c51 35 115 97 144 141 l15 23 21 -28 c11 -15 45 -51
75 -80z m-27 -900 c45 -60 129 -125 206 -161 l51 -24 -60 -30 c-121 -60 -216
-180 -251 -318 l-14 -53 -7 40 c-23 124 -137 273 -255 332 l-60 30 75 37 c85
42 177 127 220 204 l28 49 14 -27 c7 -14 31 -50 53 -79z m-10 -892 c38 -72
120 -155 195 -196 l56 -32 -63 -33 c-75 -40 -187 -146 -218 -207 l-22 -43 -20
24 c-10 14 -19 30 -19 37 0 25 -146 156 -207 185 -34 17 -62 32 -63 36 0 3 21
15 46 27 105 51 210 183 241 303 l17 69 13 -56 c7 -31 27 -82 44 -114z m-2201
-893 c0 -31 56 -140 99 -195 36 -46 134 -128 173 -146 11 -5 11 -7 0 -12 -41
-19 -138 -102 -176 -151 -43 -55 -86 -142 -102 -208 -6 -24 -8 -26 -11 -10 -9
43 -48 133 -80 182 -40 60 -129 145 -181 172 l-35 18 56 37 c110 73 213 215
232 320 5 27 10 34 16 24 5 -7 9 -21 9 -31z m2179 -147 c28 -51 129 -148 192
-183 l33 -18 -50 -28 c-59 -35 -136 -112 -179 -180 l-31 -51 -32 54 c-35 59
-147 167 -193 188 -16 7 -29 15 -29 18 0 3 23 19 51 35 60 35 151 130 180 187
23 44 23 44 58 -22z"/>
<path d="M16920 18854 c-173 -46 -292 -193 -304 -375 -12 -185 104 -350 289
-411 l68 -22 -49 -12 c-67 -15 -92 -27 -141 -63 -161 -117 -212 -336 -122
-520 27 -56 112 -142 169 -171 48 -24 140 -51 152 -44 5 3 8 1 8 -4 0 -5 -25
-12 -56 -16 -64 -7 -160 -45 -222 -88 -276 -190 -314 -593 -78 -830 74 -74
156 -121 258 -147 70 -18 71 -19 38 -26 -235 -48 -411 -226 -447 -455 -17
-108 7 -244 60 -344 32 -61 118 -158 169 -191 l28 -17 -36 -24 c-100 -69 -187
-168 -221 -256 l-18 -47 -35 67 c-19 37 -44 78 -55 91 -63 76 -82 94 -136 130
-57 38 -59 40 -38 52 69 36 171 163 208 257 64 161 41 364 -58 505 -86 123
-188 191 -341 227 l-55 13 62 13 c82 17 182 67 247 126 54 48 136 164 136 192
0 8 4 17 8 20 12 7 32 104 37 173 10 154 -73 344 -193 440 -297 239 -729 125
-863 -227 -88 -231 -1 -503 204 -642 64 -44 172 -87 222 -89 l30 -1 -35 -10
c-188 -53 -286 -119 -371 -251 l-38 -58 -22 43 c-36 71 -146 173 -230 213
-254 120 -542 42 -697 -188 -112 -165 -117 -405 -13 -580 33 -56 134 -163 162
-172 29 -9 24 -19 -31 -54 -106 -68 -209 -218 -239 -347 -17 -72 -20 -185 -5
-252 31 -148 96 -256 212 -352 l42 -34 -35 -29 c-69 -57 -111 -104 -150 -171
-25 -42 -45 -53 -45 -23 0 20 -67 113 -116 163 -54 54 -130 104 -196 129 -54
20 -60 30 -22 39 34 9 101 51 143 90 54 50 99 132 117 211 9 39 6 141 -4 180
-6 22 -11 43 -11 48 -1 17 -76 124 -110 155 -74 69 -214 117 -307 105 -55 -6
-114 -23 -148 -40 -29 -15 -30 -9 -1 27 37 47 57 164 40 244 -18 86 -96 179
-184 219 -65 29 -187 29 -254 -1 -69 -31 -140 -106 -166 -178 -96 -254 148
-502 405 -412 l41 15 -32 -43 c-55 -71 -70 -125 -70 -244 0 -100 2 -109 34
-173 37 -73 112 -151 175 -181 39 -18 43 -23 24 -23 -30 0 -138 -37 -193 -66
-79 -42 -201 -164 -243 -244 -146 -276 -68 -609 185 -790 57 -40 63 -47 46
-56 -41 -21 -142 -138 -171 -199 -107 -223 -58 -474 124 -636 71 -64 158 -106
255 -125 41 -9 65 -16 54 -17 -159 -14 -293 -107 -366 -255 -35 -72 -39 -89
-44 -182 -10 -197 115 -381 306 -448 23 -8 74 -17 115 -20 133 -10 258 37 354
134 136 136 169 341 85 516 -36 76 -105 152 -171 191 -49 29 -147 64 -183 65
-14 0 6 7 44 15 186 36 343 173 407 354 32 92 31 258 -2 345 -38 100 -116 206
-184 251 -14 9 -26 19 -26 23 1 3 29 26 63 50 66 47 133 121 177 197 l28 47
41 -65 c43 -68 124 -151 179 -183 17 -11 32 -22 32 -26 0 -4 -15 -17 -34 -28
-42 -27 -102 -91 -143 -156 -96 -153 -105 -368 -21 -535 42 -83 152 -195 229
-233 31 -15 61 -27 67 -27 27 0 8 -17 -53 -49 -125 -64 -224 -202 -250 -346
-6 -37 -7 -143 -2 -170 35 -156 108 -262 233 -342 l75 -47 -38 -16 c-90 -36
-190 -126 -244 -217 -87 -146 -99 -349 -30 -503 42 -96 142 -206 222 -247 l40
-20 -48 -31 c-122 -77 -206 -190 -244 -326 -7 -22 -13 -79 -14 -126 -6 -210
103 -399 286 -495 164 -86 370 -83 529 8 67 38 157 126 194 190 15 26 30 47
31 47 2 0 11 -16 20 -35 26 -53 126 -156 189 -194 87 -52 158 -73 266 -76 166
-6 290 43 405 159 131 133 186 312 149 491 -15 73 -60 176 -95 216 -56 66 -99
106 -147 137 l-54 34 33 17 c93 50 199 173 238 276 33 88 46 211 29 285 -5 25
-12 56 -14 69 -22 115 -152 270 -274 328 -32 15 -59 30 -59 33 -1 3 24 18 55
34 30 16 80 54 109 84 99 102 144 219 140 364 -5 186 -107 350 -266 427 l-56
27 71 37 c137 71 224 171 271 312 52 153 34 317 -49 459 -30 51 -114 139 -158
166 l-31 19 30 18 c93 56 184 159 230 259 l26 56 20 -48 c42 -98 143 -217 222
-260 33 -18 46 -34 26 -34 -5 0 -16 -6 -23 -13 -7 -7 -25 -22 -41 -34 -44 -34
-105 -114 -136 -178 -128 -267 -18 -590 246 -722 l71 -35 -61 -32 c-234 -119
-328 -417 -210 -664 36 -74 144 -184 212 -216 l52 -24 -48 -23 c-283 -135
-396 -467 -253 -748 37 -74 122 -167 189 -206 28 -16 51 -33 51 -36 0 -3 -15
-12 -33 -21 -44 -21 -140 -110 -176 -163 -173 -256 -99 -607 161 -771 107 -68
267 -98 393 -75 73 13 207 78 255 124 84 79 131 152 165 257 l18 54 12 -44
c36 -139 153 -279 285 -343 218 -104 457 -64 625 107 71 71 123 160 141 236 4
19 9 42 12 50 10 41 4 181 -12 240 -20 76 -78 178 -135 237 -41 42 -113 96
-141 105 -9 3 5 17 40 40 236 153 320 446 201 700 -54 114 -189 239 -293 270
-45 13 -48 23 -12 32 40 11 124 68 176 121 191 196 177 533 -29 715 -56 49
-166 105 -225 115 l-43 8 46 13 c104 31 202 128 235 233 74 236 -96 472 -341
474 -88 1 -138 -13 -206 -59 -150 -99 -205 -295 -128 -459 40 -84 171 -192
238 -196 9 0 -14 -11 -50 -23 -166 -56 -277 -163 -329 -317 -77 -227 13 -471
221 -594 31 -18 65 -35 75 -37 13 -2 -7 -16 -58 -41 -133 -64 -244 -189 -285
-318 -18 -59 -33 -76 -33 -39 0 11 0 22 0 25 0 3 -18 40 -40 83 -49 97 -129
179 -228 234 l-72 40 52 26 c73 37 168 136 205 214 28 57 36 82 49 143 6 28 5
134 -1 170 -28 149 -131 287 -266 356 l-52 27 64 30 c122 59 227 177 277 312
35 92 36 244 4 346 -28 91 -92 185 -170 249 -33 28 -61 53 -61 56 -1 3 21 20
49 38 65 42 148 135 184 206 l28 56 22 -63 c30 -89 69 -151 137 -218 82 -79
164 -121 289 -147 33 -7 146 -7 190 0 100 17 210 77 291 159 54 57 58 58 65
36 12 -38 68 -120 118 -171 116 -118 273 -179 439 -172 101 5 127 10 197 38
204 83 358 289 370 497 1 19 6 12 19 -27 91 -267 380 -421 656 -349 137 35
281 150 344 273 146 291 19 638 -279 760 -44 17 -51 23 -35 28 213 69 366 239
411 454 24 118 6 273 -44 366 -9 17 -16 32 -17 35 0 3 -15 26 -32 51 -38 55
-106 121 -163 159 l-41 27 51 39 c67 50 143 153 172 229 29 78 29 76 35 176
16 263 -168 504 -426 559 l-65 14 65 13 c164 33 321 160 381 308 19 46 29 74
36 95 10 34 11 207 1 249 -31 128 -124 263 -233 335 -59 39 -187 86 -235 86
-17 0 -31 4 -31 9 0 5 8 8 18 7 19 -3 103 23 150 48 77 40 165 154 194 251 15
51 11 171 -8 228 -20 62 -71 142 -115 181 -43 39 -133 85 -180 92 -22 4 -39
10 -39 15 0 5 3 8 8 7 18 -5 82 17 135 45 235 124 280 452 88 645 -156 156
-410 157 -569 3 -202 -195 -149 -537 102 -655 39 -19 85 -37 101 -41 29 -7 29
-8 -20 -19 -204 -49 -338 -259 -301 -471 9 -53 49 -138 86 -185 41 -51 135
-114 196 -129 119 -30 114 -28 68 -29 -59 -1 -188 -47 -250 -88 -75 -50 -143
-128 -186 -215 -125 -248 -41 -547 196 -701 58 -37 167 -78 209 -78 24 0 18
-9 -9 -14 -120 -23 -216 -76 -302 -163 -223 -230 -197 -608 57 -807 l50 -40
-47 -32 c-71 -47 -156 -144 -195 -222 l-34 -69 -34 71 c-36 76 -147 199 -207
230 -36 18 -41 32 -14 40 9 3 37 25 62 48 111 105 167 225 175 374 11 194 -78
372 -238 482 -59 41 -103 60 -192 82 -49 13 -61 18 -39 19 97 3 216 63 309
156 106 106 153 210 160 355 6 131 -21 229 -96 341 -137 204 -418 288 -650
194 -101 -41 -207 -129 -256 -212 -14 -24 -29 -43 -34 -43 -5 0 -18 19 -30 43
-12 23 -52 72 -88 108 -276 276 -741 177 -889 -190 -12 -30 -25 -73 -29 -95
l-6 -40 -17 59 c-45 161 -145 283 -292 354 -57 28 -104 43 -146 47 -34 4 -59
11 -56 16 3 4 9 6 14 3 13 -8 126 32 172 61 61 39 115 101 151 173 30 61 32
72 32 171 0 97 -3 110 -33 172 -55 115 -168 205 -284 227 l-43 8 45 12 c81 21
142 55 196 108 165 163 166 415 3 582 -42 42 -128 92 -184 106 -56 14 -150 13
-205 -1z m3327 -1630 c-3 -3 -12 -4 -19 -1 -8 3 -5 6 6 6 11 1 17 -2 13 -5z
m-2607 -807 c118 -196 330 -294 562 -263 141 20 302 131 379 263 16 26 29 41
29 32 0 -24 60 -109 118 -166 63 -63 195 -131 271 -140 56 -6 59 -9 21 -16
-160 -30 -309 -129 -381 -253 l-31 -54 -37 57 c-132 204 -355 292 -601 238
-47 -10 -146 -59 -195 -97 -92 -72 -173 -197 -195 -303 -6 -31 -13 -55 -15
-53 -2 2 -6 21 -9 43 -3 22 -24 76 -45 120 -79 160 -218 265 -396 300 l-40 8
64 13 c103 22 187 68 268 150 39 40 82 92 94 115 31 61 59 147 60 183 0 22 7
9 23 -46 12 -42 37 -101 56 -131z m-46 -1004 c25 -80 79 -165 146 -227 34 -31
65 -56 71 -56 21 0 6 -19 -46 -54 -65 -45 -126 -112 -167 -184 -26 -46 -48
-60 -48 -31 0 39 -146 201 -212 235 -32 17 -36 30 -10 38 21 7 97 80 135 129
38 50 85 155 93 209 7 38 8 40 15 18 4 -14 14 -48 23 -77z m-2082 -209 c26
-28 59 -57 73 -64 14 -7 25 -16 25 -20 0 -4 -24 -23 -54 -44 -51 -35 -87 -70
-133 -128 l-21 -28 -15 23 c-25 39 -95 105 -147 140 l-49 33 27 20 c60 44 105
91 144 150 l42 64 30 -48 c16 -26 51 -70 78 -98z m3122 103 c33 -58 96 -128
146 -162 l40 -27 -44 -29 c-50 -33 -128 -107 -152 -144 l-16 -25 -21 28 c-46
58 -82 93 -133 128 -30 21 -54 40 -54 44 0 4 12 13 26 21 35 18 127 119 155
169 12 22 24 40 25 40 1 0 14 -20 28 -43z m1125 -1078 c21 -26 61 -68 90 -92
50 -43 167 -107 195 -107 31 0 23 -18 -13 -28 -40 -12 -139 -74 -181 -114 -40
-36 -85 -98 -113 -154 -23 -46 -59 -162 -56 -181 6 -35 -6 -17 -21 33 -50 155
-188 297 -351 358 -220 82 -460 27 -630 -144 l-76 -77 -24 46 c-50 95 -163
190 -276 232 l-42 15 77 32 c89 37 174 100 232 173 22 28 40 47 40 42 0 -13
99 -116 145 -149 131 -96 311 -133 474 -98 168 36 333 163 401 310 l34 72 28
-61 c16 -33 46 -81 67 -108z m-3281 127 c20 -56 108 -171 161 -212 28 -22 50
-44 51 -50 0 -6 -12 -17 -26 -25 -56 -29 -152 -154 -184 -237 l-16 -43 -38 76
c-38 76 -125 182 -176 212 l-28 16 49 39 c63 49 132 138 161 205 13 29 25 53
28 53 4 0 11 -15 18 -34z m1122 -63 c49 -86 153 -184 243 -227 41 -20 82 -36
91 -36 9 0 16 -4 16 -10 0 -5 -6 -10 -12 -10 -28 -1 -141 -68 -195 -116 -33
-29 -75 -81 -97 -118 l-39 -67 -22 68 c-40 123 -126 244 -213 301 l-24 16 23
19 c62 48 127 121 159 176 19 33 36 61 37 61 0 0 16 -26 33 -57z m-2118 -115
l83 -82 -84 -84 c-67 -67 -86 -81 -93 -68 -17 31 -63 80 -109 116 l-47 37 49
36 c26 20 63 57 81 82 18 24 34 44 35 45 0 0 39 -37 85 -82z m45 -1035 c21
-17 51 -37 66 -45 l29 -14 -39 -29 c-55 -41 -121 -113 -152 -167 l-27 -47 -31
52 c-37 61 -96 125 -148 160 l-37 25 46 31 c52 36 127 108 151 145 l17 25 44
-53 c24 -30 60 -67 81 -83z m-7 -924 c33 -32 89 -72 132 -94 l74 -38 -60 -30
c-115 -57 -215 -184 -249 -317 l-15 -55 -7 40 c-10 59 -70 176 -113 221 -49
53 -111 100 -161 122 l-41 19 76 38 c85 43 172 124 219 202 l30 51 29 -52 c16
-28 55 -76 86 -107z m-65 -829 c44 -86 131 -171 226 -223 l33 -19 -64 -30
c-75 -36 -195 -150 -225 -213 -16 -36 -19 -38 -29 -21 -63 108 -153 194 -245
238 -28 12 -50 25 -51 28 0 3 25 18 55 34 60 31 147 118 187 187 14 24 34 72
44 106 l18 63 16 -58 c9 -31 25 -73 35 -92z m2148 -981 c44 -99 153 -218 229
-252 15 -6 28 -14 28 -17 0 -3 -20 -16 -45 -29 -51 -27 -132 -106 -175 -171
-33 -50 -70 -139 -71 -173 0 -25 2 -29 -39 78 -41 106 -132 217 -221 267 -43
24 -48 35 -21 45 28 10 94 63 139 111 47 51 105 154 124 222 l12 45 8 -36 c5
-20 19 -61 32 -90z m-2106 -140 c32 -34 83 -78 113 -97 35 -23 49 -37 40 -40
-64 -21 -189 -143 -232 -226 l-16 -30 -21 41 c-30 59 -124 157 -183 191 l-50
29 55 37 c66 44 133 114 172 180 l28 48 19 -35 c10 -20 44 -64 75 -98z"/>
<path d="M7120 18343 c-270 -39 -468 -257 -475 -523 -4 -140 30 -244 113 -353
118 -156 307 -232 509 -205 226 31 417 214 459 440 6 38 7 163 1 193 -31 137
-69 208 -164 301 -58 56 -139 103 -223 129 -53 16 -169 25 -220 18z"/>
<path d="M17999 18336 c-169 -37 -298 -137 -374 -291 -108 -216 -67 -462 103
-631 213 -212 556 -211 768 2 284 286 172 767 -208 901 -85 29 -204 37 -289
19z"/>
<path d="M8914 18259 c-23 -5 -60 -26 -84 -46 -136 -117 -91 -336 78 -387 171
-50 326 95 288 271 -15 68 -90 144 -161 162 -50 13 -64 12 -121 0z"/>
<path d="M16251 18255 c-129 -41 -190 -192 -128 -316 79 -160 300 -166 393
-12 107 178 -66 393 -265 328z"/>
<path d="M6110 17911 c-165 -54 -257 -206 -224 -371 43 -210 279 -319 464
-213 62 36 95 71 130 139 26 52 29 67 27 144 -2 68 -7 95 -26 133 -32 61 -92
120 -150 148 -50 24 -175 35 -221 20z"/>
<path d="M9220 17899 c-73 -29 -150 -107 -178 -179 -16 -42 -20 -73 -18 -131
2 -42 7 -82 12 -90 5 -8 9 -17 9 -20 0 -3 13 -26 28 -50 92 -144 290 -185 438
-90 205 130 184 447 -36 550 -73 34 -183 38 -255 10z"/>
<path d="M15849 17901 c-241 -94 -278 -415 -65 -560 136 -93 329 -61 430 72
119 156 57 399 -121 479 -65 29 -181 33 -244 9z"/>
<path d="M19010 17907 c-127 -36 -220 -156 -223 -291 -3 -117 49 -219 141
-277 222 -140 507 25 489 283 -8 118 -72 214 -179 269 -52 27 -162 35 -228 16z"/>
<path d="M3782 17895 c-207 -57 -362 -223 -397 -425 -22 -123 -2 -262 47 -345
10 -16 23 -41 30 -55 19 -41 129 -143 188 -177 69 -39 128 -59 175 -62 32 -1
32 -16 0 -19 -41 -3 -135 -40 -193 -74 -108 -65 -209 -203 -242 -328 -18 -66
-16 -205 4 -277 40 -149 143 -276 282 -346 168 -85 380 -74 539 28 57 36 136
115 167 166 72 116 100 274 72 409 -14 67 -63 174 -97 213 -10 12 -27 31 -36
42 -57 71 -226 163 -310 168 -53 3 -43 13 21 21 119 16 266 115 344 233 198
298 49 715 -293 821 -76 24 -226 27 -301 7z"/>
<path d="M1990 17860 c-70 -13 -128 -56 -162 -121 -31 -60 -30 -150 3 -210
114 -203 422 -124 423 109 0 139 -127 246 -264 222z"/>
<path d="M23230 17860 c-148 -26 -231 -192 -162 -325 42 -83 115 -125 208
-121 134 5 229 112 217 244 -10 127 -137 224 -263 202z"/>
<path d="M14004 17776 c-38 -38 -45 -85 -20 -134 24 -47 88 -70 138 -49 45 19
70 49 73 89 6 76 -41 128 -115 128 -34 0 -48 -6 -76 -34z"/>
<path d="M14900 17783 c-84 -75 -22 -210 90 -197 61 7 111 80 96 141 -20 78
-125 110 -186 56z"/>
<path d="M11385 17404 c-5 -1 -26 -5 -46 -8 -46 -8 -124 -75 -145 -124 -18
-43 -20 -126 -5 -166 31 -80 104 -134 191 -140 73 -5 118 12 171 64 129 129
58 349 -121 372 -19 3 -39 4 -45 2z"/>
<path d="M10480 17373 c-43 -14 -65 -32 -81 -67 -22 -51 -15 -93 24 -133 79
-83 221 -4 198 110 -7 34 -56 87 -81 87 -10 0 -24 2 -32 4 -7 3 -20 2 -28 -1z"/>
<path d="M12350 17353 c-36 -18 -65 -43 -85 -71 -27 -39 -30 -51 -30 -121 0
-68 3 -83 28 -119 97 -148 314 -130 387 31 62 136 -32 293 -183 304 -54 4 -69
1 -117 -24z"/>
<path d="M14925 17361 c-33 -14 -56 -47 -62 -88 -10 -77 35 -127 114 -127 54
0 99 40 108 96 14 85 -78 152 -160 119z"/>
<path d="M13145 17322 c-104 -23 -124 -183 -27 -221 60 -23 98 -17 138 23 29
29 34 41 34 79 0 79 -70 136 -145 119z"/>
<path d="M14024 17269 c-46 -23 -68 -103 -42 -152 13 -26 46 -57 62 -58 6 -1
23 -2 38 -3 69 -7 128 71 108 144 -18 67 -99 101 -166 69z"/>
<path d="M23524 16966 c-131 -59 -160 -236 -56 -333 149 -138 392 19 326 210
-17 49 -36 73 -82 106 -42 29 -141 39 -188 17z"/>
<path d="M10315 16949 c-107 -19 -227 -104 -278 -197 -146 -269 24 -590 324
-609 183 -12 346 90 411 259 25 65 31 191 12 255 -33 110 -115 208 -214 258
-72 36 -169 49 -255 34z"/>
<path d="M14812 16944 c-249 -64 -382 -338 -275 -566 44 -91 98 -148 188 -193
69 -36 84 -39 166 -42 74 -2 101 2 154 21 115 41 195 120 243 238 33 82 35
206 4 285 -75 194 -285 307 -480 257z"/>
<path d="M2712 16704 c-194 -40 -327 -216 -317 -418 7 -154 90 -278 234 -348
61 -31 72 -33 171 -33 100 0 109 2 174 34 277 136 315 509 71 693 -94 71 -214
97 -333 72z"/>
<path d="M11309 16706 c-55 -19 -106 -63 -129 -112 -58 -118 8 -271 132 -308
153 -45 293 67 283 225 -4 62 -15 87 -55 132 -53 61 -156 89 -231 63z"/>
<path d="M13274 16704 c-83 -29 -144 -118 -144 -209 0 -198 239 -293 377 -149
161 166 -14 434 -233 358z"/>
<path d="M22412 16704 c-141 -29 -257 -135 -305 -277 -24 -72 -18 -205 14
-281 30 -73 115 -164 188 -200 161 -82 349 -53 476 73 162 160 161 417 -2 577
-101 99 -232 138 -371 108z"/>
<path d="M13985 16679 c-82 -44 -118 -105 -119 -199 0 -291 429 -290 435 1 2
88 -50 169 -133 203 -54 23 -135 20 -183 -5z"/>
<path d="M12345 16625 c-61 -25 -76 -36 -118 -80 -86 -91 -99 -246 -31 -356
122 -197 418 -180 521 29 36 74 38 172 4 248 -63 144 -235 216 -376 159z"/>
<path d="M23466 16290 c-158 -48 -192 -259 -57 -355 38 -27 51 -30 115 -30 63
0 78 4 113 28 46 31 79 86 86 140 18 140 -120 258 -257 217z"/>
<path d="M11525 16000 c-163 -81 -82 -334 98 -306 80 13 139 81 139 161 0 124
-126 200 -237 145z"/>
<path d="M13315 15996 c-76 -47 -102 -130 -65 -210 36 -76 95 -101 206 -87 15
1 76 60 92 88 17 32 15 98 -4 140 -40 83 -152 117 -229 69z"/>
<path d="M14064 15994 c-43 -19 -59 -36 -72 -71 -20 -59 5 -119 60 -146 91
-44 194 44 165 140 -20 66 -95 103 -153 77z"/>
<path d="M3123 15791 c-70 -18 -136 -82 -158 -154 -43 -146 62 -288 214 -290
152 -2 260 138 220 286 -30 113 -158 186 -276 158z"/>
<path d="M22040 15787 c-53 -17 -123 -93 -139 -150 -29 -104 12 -208 105 -262
113 -66 269 -12 320 111 42 101 -7 238 -105 288 -38 20 -138 27 -181 13z"/>
<path d="M12405 15760 c-103 -24 -174 -111 -176 -218 -2 -148 146 -255 289
-208 149 50 199 234 96 355 -47 54 -141 87 -209 71z"/>
<path d="M2466 15716 c-165 -56 -245 -164 -260 -351 -6 -84 49 -202 127 -270
69 -60 141 -87 237 -88 156 -1 285 87 342 235 27 69 28 174 3 247 -20 60 -20
61 -82 130 -89 99 -241 139 -367 97z"/>
<path d="M3834 15675 c-265 -60 -399 -353 -272 -597 52 -99 185 -191 301 -208
29 -4 41 -8 27 -10 -91 -7 -181 -47 -251 -111 -169 -156 -165 -446 8 -599 161
-142 397 -140 551 4 174 163 173 438 -2 599 -64 59 -168 104 -251 108 -16 1
-5 5 26 9 126 16 258 110 313 222 30 61 35 80 43 160 25 258 -235 481 -493
423z"/>
<path d="M21273 15670 c-328 -90 -411 -516 -140 -720 76 -58 151 -80 260 -77
81 2 100 7 157 35 36 17 76 42 90 54 210 190 186 514 -49 662 -86 55 -217 74
-318 46z"/>
<path d="M11074 15451 c-62 -28 -89 -73 -89 -146 1 -94 51 -151 143 -162 75
-8 137 29 168 102 19 47 18 81 -7 131 -38 80 -134 113 -215 75z"/>
<path d="M14085 15451 c-150 -69 -110 -293 55 -309 106 -10 189 78 174 185 -8
58 -36 97 -89 123 -51 25 -88 25 -140 1z"/>
<path d="M3318 15190 c-133 -38 -161 -218 -45 -294 36 -23 50 -27 98 -24 69 5
114 35 141 95 39 87 -15 204 -101 219 -61 11 -65 11 -93 4z"/>
<path d="M21885 15187 c-47 -18 -70 -39 -94 -82 -27 -51 -27 -100 2 -150 32
-56 79 -85 139 -85 110 0 184 88 164 196 -9 43 -67 111 -104 119 -59 12 -78
13 -107 2z"/>
<path d="M21265 14846 c-127 -40 -225 -131 -271 -251 -19 -50 -26 -200 -12
-251 16 -56 62 -133 104 -177 144 -145 375 -161 540 -37 229 173 206 530 -44
676 -87 51 -226 69 -317 40z"/>
<path d="M22823 14610 c-41 -25 -62 -85 -44 -129 21 -49 47 -66 102 -66 39 0
54 5 75 26 53 53 36 147 -31 175 -45 19 -64 18 -102 -6z"/>
<path d="M3074 14329 c-74 -48 -76 -148 -4 -199 25 -18 41 -21 76 -17 71 8
116 63 107 132 -12 85 -109 130 -179 84z"/>
<path d="M20937 14088 c-133 -28 -208 -148 -176 -282 9 -36 24 -62 58 -96 139
-144 378 -51 386 149 2 45 -27 126 -57 158 -54 58 -139 86 -211 71z"/>
<path d="M4225 14070 c-55 -26 -80 -50 -106 -100 -25 -48 -32 -124 -16 -176 6
-20 28 -55 49 -79 79 -90 219 -100 313 -23 127 106 96 319 -57 382 -51 22
-134 20 -183 -4z"/>
<path d="M3878 13490 c-118 -35 -187 -168 -148 -285 27 -83 116 -146 208 -147
183 -1 284 198 177 352 -47 68 -155 104 -237 80z"/>
<path d="M21095 13401 c-134 -62 -160 -232 -49 -330 137 -120 342 -16 329 167
-10 136 -156 221 -280 163z"/>
<path d="M21730 13407 c-85 -42 -125 -102 -123 -188 2 -180 208 -265 340 -140
38 36 56 82 56 141 0 74 -32 132 -97 174 -36 23 -140 31 -176 13z"/>
<path d="M3260 13064 c-58 -25 -83 -107 -50 -161 30 -49 63 -66 116 -60 53 6
90 35 100 81 16 65 -5 114 -60 140 -36 17 -64 17 -106 0z"/>
<path d="M3125 12971 c-6 -11 9 -23 19 -14 9 9 7 23 -3 23 -6 0 -12 -4 -16 -9z"/>
<path d="M20415 12764 c-140 -50 -176 -244 -62 -340 150 -127 374 12 326 202
-28 111 -154 177 -264 138z"/>
<path d="M21100 12754 c-65 -29 -116 -96 -124 -166 -10 -83 55 -182 138 -211
53 -18 129 -6 180 30 127 90 102 286 -44 349 -39 16 -111 15 -150 -2z"/>
<path d="M21685 12649 c-62 -31 -76 -115 -27 -169 65 -73 192 -23 184 74 -6
80 -88 129 -157 95z"/>
<path d="M19234 12516 c-93 -93 34 -237 141 -159 82 60 36 193 -67 193 -32 0
-47 -7 -74 -34z"/>
<path d="M5855 12518 c-140 -50 -183 -229 -80 -333 107 -106 297 -57 336 87
33 125 -52 245 -180 254 -25 1 -59 -2 -76 -8z"/>
<path d="M5135 12476 c-100 -44 -146 -175 -96 -273 48 -95 160 -136 257 -94
157 68 165 284 13 361 -45 23 -129 26 -174 6z"/>
<path d="M4210 12320 c-92 -26 -143 -86 -156 -178 -7 -54 15 -118 55 -159 94
-98 269 -69 323 55 58 130 -18 267 -157 285 -22 2 -51 1 -65 -3z"/>
<path d="M6475 12290 c-59 -29 -89 -79 -88 -146 1 -101 83 -174 181 -160 57 8
85 26 117 74 57 87 15 207 -84 241 -49 16 -80 14 -126 -9z"/>
<path d="M18685 12296 c-85 -39 -122 -144 -80 -226 70 -135 271 -108 304 41
14 64 -12 128 -71 172 -34 25 -113 32 -153 13z"/>
<path d="M19745 12088 c-81 -17 -154 -106 -155 -187 -1 -165 172 -263 310
-176 78 49 113 161 76 248 -35 85 -137 136 -231 115z"/>
<path d="M6182 11908 c-78 -12 -139 -43 -199 -103 -237 -238 -54 -638 283
-619 106 6 228 78 283 167 48 78 66 186 46 273 -45 194 -217 312 -413 282z"/>
<path d="M19003 11909 c-136 -17 -261 -130 -298 -267 -78 -297 231 -552 510
-421 105 49 181 151 200 269 31 183 -74 350 -256 409 -47 15 -92 18 -156 10z"/>
<path d="M20453 11875 c-42 -18 -63 -52 -63 -101 0 -35 5 -47 31 -68 31 -26
44 -30 88 -26 50 4 92 56 85 104 -6 41 -27 75 -52 84 -52 19 -58 20 -89 7z"/>
<path d="M5190 11721 c-37 -9 -65 -32 -81 -66 -51 -106 75 -203 173 -134 43
31 54 105 23 153 -13 20 -74 59 -87 55 -1 -1 -14 -4 -28 -8z"/>
<path d="M4234 11620 c-50 -11 -94 -42 -125 -89 -39 -60 -43 -122 -11 -195 33
-73 110 -117 195 -110 99 7 174 81 182 178 12 137 -108 245 -241 216z"/>
<path d="M5525 11396 c-68 -31 -107 -105 -95 -179 9 -51 37 -88 89 -114 124
-63 264 49 229 184 -25 97 -132 149 -223 109z"/>
<path d="M19626 11388 c-80 -47 -105 -154 -54 -233 31 -47 71 -68 132 -69 59
0 107 22 140 67 30 40 30 144 0 183 -35 48 -70 67 -126 71 -42 3 -61 -1 -92
-19z"/>
<path d="M20416 11316 c-96 -36 -152 -141 -125 -238 23 -88 100 -149 188 -150
176 -1 269 196 156 330 -52 62 -143 86 -219 58z"/>
<path d="M5940 11170 c-191 -39 -348 -177 -411 -361 -28 -81 -34 -230 -13
-309 35 -133 136 -269 248 -335 l47 -27 -43 -21 c-64 -32 -168 -141 -205 -217
-47 -96 -63 -170 -59 -275 9 -233 147 -417 378 -501 62 -23 219 -27 293 -8
125 33 245 111 308 203 54 78 68 108 94 196 3 11 8 61 10 110 6 106 -12 189
-60 280 -36 67 -143 180 -199 210 -21 11 -38 22 -38 25 0 3 23 19 51 35 95 56
192 182 224 291 23 76 25 92 26 170 1 230 -148 438 -371 516 -63 22 -212 32
-280 18z"/>
<path d="M19109 11161 c-185 -50 -335 -202 -385 -388 -13 -51 -20 -192 -11
-233 2 -8 7 -31 11 -50 5 -19 23 -64 40 -100 36 -74 148 -195 211 -227 l39
-21 -54 -35 c-157 -100 -252 -272 -252 -458 0 -150 51 -278 155 -382 115 -117
247 -169 411 -163 302 11 531 258 521 561 -6 183 -93 337 -249 440 -33 23 -52
41 -45 43 8 3 41 24 75 48 196 138 271 403 183 640 -94 249 -387 396 -650 325z"/>
<path d="M5112 11139 c-105 -19 -178 -114 -165 -216 21 -175 225 -245 343
-117 87 94 73 222 -32 303 -31 24 -101 38 -146 30z"/>
<path d="M11115 11050 c-51 -13 -79 -27 -111 -59 -50 -49 -69 -97 -67 -169 1
-81 37 -143 107 -187 42 -25 59 -30 116 -30 57 0 74 5 116 30 127 79 147 245
43 354 -49 51 -135 77 -204 61z"/>
<path d="M14087 11048 c-173 -37 -234 -252 -108 -378 52 -52 99 -69 174 -66
59 3 102 22 144 65 160 159 11 427 -210 379z"/>
<path d="M13412 10947 c-152 -58 -193 -257 -75 -369 141 -134 374 -28 369 167
-3 85 -45 153 -119 191 -38 20 -135 26 -175 11z"/>
<path d="M11639 10654 c-71 -29 -93 -127 -41 -185 55 -62 160 -50 194 21 50
103 -47 206 -153 164z"/>
<path d="M20419 10531 c-34 -35 -39 -86 -12 -132 39 -65 142 -57 176 14 50
102 -83 198 -164 118z"/>
<path d="M4591 10459 c-78 -16 -115 -107 -70 -174 69 -100 225 -37 205 83 -10
63 -71 104 -135 91z"/>
<path d="M5115 10449 c-56 -28 -76 -115 -39 -166 12 -16 39 -34 61 -42 36 -13
43 -12 79 5 39 19 60 49 68 95 5 31 -30 94 -61 108 -29 13 -81 13 -108 0z"/>
<path d="M20471 10137 c-101 -20 -172 -103 -177 -206 -12 -238 312 -320 416
-105 79 162 -63 347 -239 311z"/>
<path d="M11088 10054 c-157 -48 -205 -255 -88 -372 149 -149 399 -34 385 176
-7 93 -69 171 -158 197 -61 18 -78 18 -139 -1z"/>
<path d="M14085 10061 c-99 -25 -161 -97 -171 -200 -19 -176 167 -302 326
-221 80 41 121 107 123 200 3 144 -139 257 -278 221z"/>
<path d="M5085 10047 c-120 -38 -175 -182 -112 -290 31 -52 66 -81 117 -94
115 -31 225 36 251 153 23 104 -43 209 -147 232 -56 12 -68 12 -109 -1z"/>
<path d="M13400 9934 c-87 -26 -150 -114 -150 -209 0 -146 136 -248 282 -212
20 5 56 25 79 45 104 89 106 241 4 330 -63 56 -133 71 -215 46z"/>
<path d="M11755 9856 c-58 -25 -86 -109 -56 -165 17 -30 70 -61 106 -61 36 0
89 31 106 61 16 31 13 93 -7 124 -33 51 -91 66 -149 41z"/>
<path d="M4557 9357 c-87 -50 -65 -184 33 -206 47 -10 95 10 120 52 63 103
-48 214 -153 154z"/>
<path d="M5136 9370 c-39 -12 -64 -37 -75 -75 -13 -47 -3 -81 33 -116 28 -28
36 -30 82 -27 58 5 88 28 102 80 24 87 -54 163 -142 138z"/>
<path d="M11072 9355 c-169 -53 -254 -250 -176 -408 54 -111 149 -171 269
-170 88 1 151 27 209 87 105 108 118 250 33 378 -70 105 -210 152 -335 113z"/>
<path d="M13812 9350 c-195 -70 -258 -318 -121 -474 58 -66 131 -98 222 -99
164 -1 286 112 295 275 6 103 -12 152 -83 224 -92 93 -194 117 -313 74z"/>
<path d="M12520 9164 c-73 -19 -94 -30 -137 -71 -66 -61 -88 -114 -88 -208 0
-66 4 -89 25 -128 108 -213 412 -213 516 0 53 107 32 245 -50 327 -72 71 -178
104 -266 80z"/>
<path d="M7105 9073 c-186 -34 -341 -178 -390 -362 -22 -83 -17 -207 11 -287
46 -131 131 -227 261 -291 l74 -37 -46 -17 c-86 -33 -181 -123 -225 -215 -129
-273 21 -580 317 -648 l58 -13 -50 -6 c-161 -22 -313 -166 -358 -339 -14 -54
-16 -161 -3 -217 21 -91 115 -224 194 -273 l34 -21 -37 -18 c-115 -56 -214
-171 -262 -303 -22 -61 -24 -74 -28 -163 -8 -155 57 -312 170 -416 72 -66 210
-137 265 -137 33 0 23 -14 -24 -33 -56 -23 -127 -93 -157 -154 -18 -39 -23
-65 -23 -133 -1 -75 3 -92 30 -145 110 -216 407 -234 544 -33 89 130 65 311
-55 416 -35 32 -111 69 -128 64 -5 -1 -6 2 -3 6 3 5 25 12 48 16 81 13 188 73
260 147 244 247 205 645 -81 838 -31 21 -62 40 -70 42 -8 3 5 19 38 44 120 92
181 214 181 365 0 81 -13 137 -48 208 -55 113 -198 220 -317 238 l-49 7 54 14
c135 33 249 119 309 232 121 227 26 515 -204 623 l-67 31 50 17 c150 53 277
202 310 365 12 59 5 192 -13 246 -82 248 -317 389 -570 342z"/>
<path d="M18050 9079 c-81 -10 -105 -17 -177 -51 -122 -60 -233 -203 -262
-338 -16 -71 -6 -206 19 -273 49 -130 156 -243 276 -292 l58 -23 -59 -28
c-279 -132 -346 -507 -130 -728 61 -63 130 -102 224 -126 l65 -17 -50 -7
c-110 -16 -249 -113 -307 -216 -116 -207 -60 -471 129 -601 l47 -32 -39 -20
c-41 -21 -117 -78 -147 -112 -114 -127 -165 -315 -130 -482 13 -65 56 -167 80
-191 7 -7 13 -17 13 -21 0 -7 66 -75 110 -112 57 -48 236 -118 256 -100 4 3 4
0 0 -6 -4 -7 -14 -13 -22 -13 -52 0 -152 -87 -191 -167 -23 -48 -27 -70 -27
-133 0 -113 42 -195 134 -261 122 -88 302 -71 408 39 112 115 116 317 9 431
-39 41 -115 91 -138 91 -10 0 -21 6 -25 13 -4 6 -4 9 0 6 11 -10 113 19 170
48 191 96 308 294 300 510 -3 85 -16 137 -55 220 -44 95 -159 210 -249 248
-24 11 -24 11 21 42 230 158 259 494 61 692 -65 66 -161 116 -243 129 l-54 8
53 8 c115 17 253 112 314 216 133 229 41 531 -197 644 l-59 28 57 23 c220 89
347 336 293 568 -58 248 -288 414 -536 386z"/>
<path d="M5992 9059 c-210 -25 -374 -165 -427 -365 -19 -68 -20 -184 -3 -252
36 -150 168 -297 306 -344 l43 -15 -65 -32 c-203 -99 -303 -342 -231 -555 53
-156 196 -277 355 -302 45 -7 51 -14 14 -14 -47 -1 -150 -42 -206 -84 -80 -58
-154 -164 -170 -241 -3 -16 -9 -10 -25 25 -30 67 -94 132 -164 170 -107 57
-256 50 -359 -16 -244 -155 -223 -513 37 -636 187 -89 416 0 493 190 l13 33
17 -48 c127 -362 640 -401 825 -62 112 207 50 461 -147 597 -56 39 -86 51
-158 66 l-55 12 69 17 c161 40 283 156 330 315 21 71 16 220 -9 282 -46 113
-144 217 -242 258 -24 9 -43 20 -43 23 0 3 19 12 41 19 47 16 142 80 177 119
82 91 131 210 136 329 3 93 -14 165 -61 255 -67 127 -223 238 -354 252 -30 4
-58 7 -64 9 -5 1 -39 -1 -73 -5z"/>
<path d="M8224 9058 c-128 -13 -235 -66 -319 -160 -139 -154 -167 -373 -73
-562 52 -104 163 -203 266 -238 l43 -15 -65 -32 c-187 -92 -288 -300 -245
-503 38 -181 190 -326 369 -354 44 -7 52 -14 16 -14 -41 0 -145 -38 -193 -71
-85 -59 -168 -173 -189 -259 -12 -46 -13 -188 -3 -227 95 -355 529 -466 780
-200 157 167 157 447 0 614 -74 78 -200 143 -279 143 -38 0 -22 8 26 15 98 12
228 98 294 194 55 79 77 161 74 271 -3 84 -7 104 -38 172 -44 93 -121 174
-207 215 -33 15 -60 30 -60 33 -1 4 16 12 37 19 20 8 60 28 87 46 261 167 306
527 95 758 -105 115 -256 172 -416 155z"/>
<path d="M9388 9065 c-2 -2 -25 -5 -53 -8 -76 -9 -91 -14 -163 -48 -124 -61
-228 -195 -262 -338 -19 -80 -8 -211 24 -291 48 -120 148 -223 264 -272 28
-12 52 -25 52 -29 0 -4 -13 -12 -30 -17 -16 -6 -51 -25 -76 -43 -139 -95 -211
-247 -198 -417 14 -197 166 -365 367 -406 l62 -13 -54 -6 c-157 -19 -316 -160
-361 -322 -20 -71 -18 -198 4 -265 96 -287 436 -404 689 -236 206 137 260 423
120 633 -63 96 -185 174 -296 191 l-52 8 50 8 c77 12 185 68 242 126 89 90
136 202 134 320 -2 114 -25 186 -85 268 -62 84 -135 139 -216 162 -23 7 -24 8
-5 15 66 23 152 74 194 115 55 53 114 140 125 184 l7 28 33 -47 c71 -99 171
-155 289 -160 223 -10 403 165 396 384 -3 94 -21 146 -74 216 -40 53 -43 56
-95 91 -125 83 -289 82 -415 -1 -56 -37 -79 -61 -114 -118 l-23 -38 -21 43
c-75 158 -232 263 -419 281 -21 3 -39 3 -40 2z"/>
<path d="M15835 9058 c-107 -13 -205 -60 -281 -135 -45 -45 -103 -127 -118
-168 -6 -18 -9 -16 -23 13 -26 53 -102 123 -171 155 -50 23 -80 30 -140 32
-114 5 -187 -23 -285 -105 -31 -26 -78 -108 -96 -165 l-17 -55 -18 40 c-52
117 -210 147 -310 58 -112 -98 -81 -275 56 -333 98 -40 210 3 257 100 l18 37
12 -48 c76 -304 485 -379 672 -124 l33 45 35 -69 c43 -87 128 -173 211 -215
35 -17 69 -31 77 -31 23 0 14 -18 -13 -24 -42 -11 -125 -69 -171 -119 -113
-123 -147 -305 -87 -465 54 -145 164 -240 323 -282 l65 -17 -50 -7 c-116 -16
-247 -110 -310 -221 -100 -181 -71 -400 75 -545 179 -179 462 -179 640 -1 143
143 175 339 85 529 -54 115 -203 225 -324 239 -28 3 -49 7 -48 9 2 1 23 5 48
9 76 10 181 67 242 129 50 50 103 139 114 191 23 107 24 146 5 233 -28 135
-142 269 -263 313 -37 13 -51 29 -25 29 34 0 142 66 197 122 104 103 153 231
145 382 -14 288 -270 500 -560 464z"/>
<path d="M16995 9063 c-234 -22 -407 -170 -459 -392 -52 -223 60 -452 272
-556 l74 -37 -61 -29 c-149 -70 -251 -234 -252 -404 0 -63 2 -74 20 -140 36
-131 181 -271 311 -301 19 -4 38 -9 43 -10 4 -1 17 -2 30 -4 12 -1 -7 -8 -42
-16 -216 -46 -361 -225 -361 -444 1 -126 40 -225 125 -313 66 -69 123 -102
218 -127 383 -98 694 307 507 659 -61 114 -195 212 -311 227 l-54 7 67 17 c93
23 153 56 220 122 55 53 110 146 124 209 11 49 12 147 2 199 -23 131 -125 264
-248 322 -59 29 -63 32 -40 38 97 27 228 136 282 236 149 276 10 613 -296 718
-11 4 -42 9 -70 12 -28 3 -55 6 -61 7 -5 2 -23 1 -40 0z"/>
<path d="M19195 9059 c-83 -9 -141 -30 -206 -71 -154 -100 -240 -262 -233
-438 3 -82 5 -95 27 -156 31 -85 58 -125 132 -197 44 -42 125 -92 168 -102 37
-10 34 -19 -12 -35 -22 -7 -64 -32 -95 -56 -117 -92 -178 -217 -178 -364 1
-83 9 -118 47 -195 59 -122 175 -215 305 -245 l54 -13 -54 -14 c-88 -22 -156
-61 -219 -123 -255 -257 -124 -691 231 -766 35 -7 66 -10 70 -8 4 3 8 1 8 -4
0 -5 -21 -12 -47 -16 -154 -21 -282 -155 -301 -317 -14 -117 20 -213 106 -299
56 -55 141 -100 192 -100 11 0 20 -4 20 -9 0 -5 -10 -9 -22 -9 -37 0 -115 -41
-159 -84 -173 -168 -93 -468 142 -532 l54 -14 -40 -1 c-52 -2 -163 -41 -223
-80 -128 -82 -220 -217 -248 -362 -13 -71 -6 -189 16 -257 22 -68 55 -136 78
-160 7 -8 24 -29 39 -49 31 -40 130 -112 188 -135 81 -33 125 -42 234 -47 7
-1 -5 -16 -27 -33 -46 -38 -97 -110 -118 -171 -23 -62 -20 -180 6 -249 54
-144 176 -235 330 -245 193 -13 362 118 396 308 8 45 8 60 -2 139 -16 135
-160 278 -301 297 -24 3 -43 8 -43 10 0 7 44 42 53 43 15 0 108 94 139 138 34
50 75 144 85 199 12 63 7 205 -10 259 -40 132 -134 257 -241 319 -64 37 -171
75 -216 75 -32 1 -31 2 23 20 50 16 106 49 144 86 6 6 27 38 45 70 30 54 33
67 33 144 0 73 -4 93 -28 141 -45 90 -115 145 -221 174 -47 13 -49 14 -16 14
47 1 117 28 165 65 56 42 68 55 99 109 118 200 22 457 -198 530 -27 10 -65 17
-83 17 -47 0 -41 15 8 17 150 9 294 107 364 246 19 38 35 77 35 85 0 8 14 -12
30 -45 37 -73 102 -136 178 -171 48 -22 71 -26 147 -26 76 0 99 4 145 25 97
45 171 125 201 219 8 25 14 81 14 125 0 67 -5 90 -29 142 -35 76 -104 144
-184 181 -49 23 -70 27 -147 27 -81 0 -97 -3 -155 -32 -75 -37 -128 -87 -167
-160 l-29 -52 -17 50 c-51 143 -178 252 -330 283 l-61 12 57 12 c126 25 249
117 310 230 73 135 68 321 -11 452 -38 62 -121 137 -188 170 l-66 32 56 23
c119 49 221 152 273 276 20 51 27 84 29 161 5 151 -38 267 -136 367 -114 117
-254 167 -415 150z"/>
<path d="M5165 9009 c-153 -20 -258 -140 -259 -294 0 -163 121 -289 284 -296
124 -5 222 55 282 173 23 45 26 64 25 128 -3 87 -26 144 -83 203 -65 67 -157
99 -249 86z"/>
<path d="M13905 8627 c-65 -40 -81 -95 -48 -164 49 -105 212 -66 218 51 2 39
-3 51 -29 82 -25 29 -39 36 -76 39 -25 2 -54 -2 -65 -8z"/>
<path d="M12534 8509 c-96 -17 -168 -69 -212 -153 -22 -43 -27 -64 -27 -131 0
-70 4 -87 30 -134 53 -96 146 -152 253 -153 214 -1 354 225 257 416 -58 115
-178 177 -301 155z"/>
<path d="M11123 8479 c-59 -23 -113 -78 -130 -133 -53 -171 101 -332 270 -282
144 43 205 210 122 333 -59 88 -161 120 -262 82z"/>
<path d="M13930 8288 c-122 -33 -194 -178 -146 -293 59 -141 232 -185 346 -87
105 89 107 241 5 330 -20 18 -49 38 -63 43 -38 14 -102 17 -142 7z"/>
<path d="M10100 8058 c-124 -47 -206 -176 -197 -313 8 -147 100 -257 242 -290
175 -41 344 68 381 246 18 87 -10 201 -64 264 -24 28 -92 79 -127 94 -51 23
-172 23 -235 -1z"/>
<path d="M14980 8064 c-73 -27 -143 -85 -177 -149 -93 -174 -7 -393 179 -454
144 -47 313 21 380 153 26 51 30 70 33 146 7 170 -123 308 -298 316 -48 3 -87
-2 -117 -12z"/>
<path d="M5082 8001 c-71 -25 -141 -85 -177 -156 -25 -49 -29 -68 -30 -139 0
-67 4 -90 26 -136 84 -177 305 -240 464 -131 142 96 182 298 88 439 -81 120
-234 170 -371 123z"/>
<path d="M20011 8004 c-66 -24 -118 -62 -154 -113 -44 -61 -55 -88 -62 -158
-20 -175 114 -332 296 -346 128 -10 257 70 312 192 32 71 30 179 -5 254 -32
68 -89 126 -154 158 -61 29 -171 36 -233 13z"/>
<path d="M11159 7635 c-83 -45 -79 -169 6 -209 61 -29 129 -4 158 57 17 34 16
61 -3 108 -22 52 -104 75 -161 44z"/>
<path d="M8945 6276 c-62 -20 -91 -38 -143 -88 -194 -188 -121 -520 133 -605
47 -16 156 -22 200 -11 108 27 201 103 250 206 24 49 28 70 29 147 1 83 -2 96
-32 157 -40 82 -120 157 -197 185 -63 24 -182 28 -240 9z"/>
<path d="M16123 6271 c-57 -21 -72 -30 -126 -78 -144 -127 -155 -365 -22 -511
149 -166 429 -152 561 27 48 65 73 150 69 239 -9 237 -257 403 -482 323z"/>
<path d="M5932 6244 c-159 -57 -255 -197 -247 -362 5 -108 39 -181 119 -255
48 -43 112 -76 170 -86 l41 -6 -45 -14 c-101 -29 -174 -91 -214 -183 -34 -76
-32 -189 3 -261 41 -84 126 -154 209 -172 42 -9 39 -11 -23 -20 -67 -8 -199
-73 -257 -124 -61 -54 -115 -129 -142 -195 l-22 -53 -37 76 c-131 272 -460
381 -736 245 -82 -41 -179 -129 -223 -204 -31 -54 -66 -152 -71 -204 -6 -49
-13 -55 -15 -11 -2 47 -41 142 -78 188 -100 127 -289 170 -435 99 -136 -65
-210 -180 -210 -322 -1 -320 363 -485 607 -276 48 41 100 134 110 197 l8 44
17 -86 c22 -115 65 -201 139 -281 l60 -66 -52 -25 c-70 -32 -134 -98 -171
-176 -46 -98 -43 -227 9 -320 13 -24 23 -46 21 -48 -3 -2 -17 2 -33 8 -16 6
-60 11 -97 11 -57 0 -80 -6 -132 -31 -225 -111 -242 -423 -30 -553 131 -80
300 -57 401 55 60 65 79 119 79 217 0 74 -4 91 -27 134 -23 39 -24 47 -10 41
9 -4 44 -12 77 -19 161 -35 326 48 401 200 26 53 29 69 29 154 0 88 -3 101
-33 163 -18 37 -39 67 -45 67 -25 1 20 19 63 25 25 3 82 24 127 46 108 52 197
139 249 245 l37 74 15 -32 c52 -121 137 -218 248 -284 17 -10 17 -11 -7 -11
-36 -1 -129 -29 -160 -50 -144 -98 -206 -241 -173 -401 17 -81 57 -155 112
-203 193 -169 483 -113 597 116 27 54 29 69 30 160 0 90 -3 107 -29 163 -20
42 -47 79 -83 112 -53 49 -54 50 -26 50 131 2 278 61 370 148 113 108 173 246
174 401 1 145 -59 288 -166 393 -72 72 -230 148 -308 148 -29 1 -26 3 20 19
29 10 70 30 92 45 163 113 178 358 31 494 -35 32 -76 54 -140 74 -45 13 -50
17 -25 17 75 3 179 60 234 130 51 65 74 127 78 211 5 156 -69 281 -207 347
-70 34 -200 42 -268 17z"/>
<path d="M8170 6247 c-95 -28 -178 -100 -224 -197 -28 -58 -31 -74 -30 -155 0
-75 5 -99 26 -147 46 -100 157 -189 255 -205 36 -6 44 -18 13 -20 -36 -3 -107
-40 -150 -79 -129 -117 -136 -325 -14 -448 53 -54 90 -75 160 -92 107 -25 215
7 294 87 55 56 82 116 88 200 7 96 -16 164 -78 232 -44 48 -120 94 -167 101
-27 4 -22 14 10 19 98 16 202 99 253 202 26 53 29 71 29 150 0 80 -4 97 -31
155 -61 128 -170 201 -309 207 -46 1 -99 -3 -125 -10z"/>
<path d="M16899 6241 c-170 -66 -266 -233 -235 -411 12 -64 64 -157 117 -204
50 -45 137 -85 187 -87 19 0 10 -6 -36 -22 -34 -12 -82 -38 -106 -57 -182
-144 -151 -428 56 -529 164 -79 341 -19 426 144 35 68 39 176 10 255 -29 75
-105 150 -182 179 -31 12 -61 19 -66 16 -5 -3 -12 -1 -15 5 -4 6 -3 9 2 8 18
-5 90 15 135 38 66 33 129 98 160 164 65 140 37 303 -71 410 -79 79 -134 103
-246 106 -68 2 -101 -2 -136 -15z"/>
<path d="M5350 6081 c-82 -46 -111 -159 -60 -235 95 -139 310 -65 297 102 -6
88 -62 143 -149 149 -39 2 -62 -2 -88 -16z"/>
<path d="M19800 6084 c-62 -26 -104 -112 -89 -183 23 -112 164 -165 254 -97
62 48 82 113 58 186 -31 91 -130 133 -223 94z"/>
<path d="M5301 5589 c-115 -15 -221 -86 -272 -183 -53 -99 -60 -214 -20 -318
26 -67 105 -152 173 -185 229 -114 501 37 525 290 21 232 -177 425 -406 396z"/>
<path d="M19958 5595 c-2 -1 -27 -5 -55 -8 -260 -27 -402 -344 -252 -564 65
-94 169 -152 284 -157 152 -7 283 73 348 213 27 56 31 76 30 146 0 112 -29
182 -103 257 -31 31 -74 64 -96 73 -40 17 -150 45 -156 40z"/>
<path d="M8975 5521 c-109 -28 -195 -114 -230 -229 -14 -47 -6 -151 15 -199
47 -106 153 -187 260 -196 114 -10 233 45 293 136 44 67 53 97 56 178 4 122
-72 240 -188 292 -49 22 -156 31 -206 18z"/>
<path d="M22674 5109 c-73 -28 -138 -88 -173 -162 -27 -55 -30 -71 -27 -142 3
-94 27 -153 87 -214 139 -144 384 -121 490 48 104 164 48 368 -126 459 -67 35
-176 39 -251 11z"/>
<path d="M7635 4945 c-65 -35 -95 -80 -95 -145 0 -90 62 -160 149 -165 145
-10 227 141 141 262 -39 54 -138 78 -195 48z"/>
<path d="M17524 4941 c-83 -38 -116 -148 -68 -229 60 -101 207 -106 276 -10
33 47 33 139 0 186 -46 64 -134 87 -208 53z"/>
<path d="M8191 4859 c-88 -17 -178 -88 -223 -179 -32 -65 -32 -195 0 -263 52
-109 156 -178 276 -183 109 -5 200 37 265 122 60 78 80 175 56 268 -44 170
-198 267 -374 235z"/>
<path d="M16960 4853 c-173 -44 -270 -214 -224 -392 52 -197 291 -292 466
-184 101 62 152 154 152 273 0 90 -22 147 -85 215 -78 85 -194 118 -309 88z"/>
<path d="M20240 4819 c-116 -13 -197 -53 -284 -141 -90 -92 -131 -198 -128
-332 5 -245 215 -446 466 -446 53 0 147 24 206 53 61 30 161 131 194 195 75
147 66 338 -21 466 -97 142 -270 223 -433 205z"/>
<path d="M21108 4720 c-156 -48 -262 -200 -253 -362 11 -242 243 -402 474
-328 267 86 340 425 131 614 -94 85 -230 114 -352 76z"/>
<path d="M7187 4644 c-1 -1 -25 -5 -54 -8 -143 -16 -280 -115 -344 -251 -37
-78 -48 -132 -44 -213 17 -401 497 -587 776 -301 67 68 115 159 125 239 5 38
5 133 1 155 -50 223 -203 355 -440 380 -9 1 -18 1 -20 -1z"/>
<path d="M18041 4638 c-378 -51 -531 -523 -251 -781 184 -170 446 -167 628 8
34 33 62 64 62 68 0 5 9 22 20 37 49 69 69 245 38 340 -15 47 -49 121 -68 145
-71 92 -199 169 -300 181 -30 3 -57 7 -60 8 -3 1 -34 -2 -69 -6z"/>
<path d="M3385 4256 c-118 -52 -126 -234 -13 -292 38 -20 104 -25 137 -11 130
55 142 227 21 299 -32 19 -107 22 -145 4z"/>
<path d="M21790 4263 c-58 -22 -94 -71 -104 -140 -20 -128 134 -227 244 -156
110 71 101 240 -16 289 -33 14 -96 17 -124 7z"/>
<path d="M7904 4210 c-139 -31 -248 -166 -247 -306 1 -126 70 -236 181 -291
48 -23 69 -27 137 -27 69 0 88 4 140 30 120 61 185 182 173 322 -12 122 -113
241 -230 268 -39 9 -122 11 -154 4z"/>
<path d="M17255 4210 c-146 -35 -245 -158 -246 -305 0 -65 7 -99 32 -147 31
-61 84 -113 147 -144 49 -24 69 -28 137 -28 100 1 160 26 226 94 151 156 103
416 -95 509 -51 24 -146 33 -201 21z"/>
<path d="M3722 3914 c-70 -18 -105 -38 -158 -86 -154 -141 -158 -383 -10 -526
189 -184 492 -118 595 127 20 47 23 67 19 145 -5 97 -20 142 -71 208 -86 113
-239 167 -375 132z"/>
<path d="M20470 3920 c-107 -18 -216 -98 -265 -197 -34 -70 -46 -194 -24 -267
31 -105 132 -208 236 -241 83 -26 192 -22 253 10 l29 15 -19 -33 c-70 -118
-49 -282 48 -382 105 -107 291 -124 412 -38 159 115 177 354 36 486 -83 79
-187 108 -291 82 -27 -7 -51 -12 -53 -11 -1 2 9 25 23 52 68 132 47 294 -52
404 -87 97 -207 140 -333 120z"/>
<path d="M21429 3920 c-221 -36 -355 -265 -283 -482 55 -166 246 -271 424
-233 52 11 145 63 178 100 75 82 105 163 101 274 -4 104 -49 196 -126 260 -34
28 -91 61 -110 63 -5 0 -18 4 -31 9 -35 13 -101 17 -153 9z"/>
<path d="M23450 3915 c-114 -23 -204 -94 -256 -202 -26 -52 -29 -68 -29 -153
1 -82 4 -102 28 -150 62 -128 173 -202 322 -215 35 -3 120 17 166 38 73 34
136 98 172 176 38 80 43 196 13 276 -64 170 -239 267 -416 230z"/>
<path d="M6500 3869 c-70 -10 -136 -46 -185 -101 -59 -66 -84 -134 -81 -223 9
-278 336 -408 536 -213 156 151 109 423 -88 510 -56 25 -126 35 -182 27z"/>
<path d="M18689 3865 c-73 -15 -116 -39 -166 -92 -85 -88 -110 -200 -72 -316
88 -270 455 -296 583 -42 118 232 -90 503 -345 450z"/>
<path d="M2923 3799 c-109 -20 -213 -102 -263 -206 -35 -72 -39 -199 -10 -276
97 -257 429 -322 611 -120 123 136 125 347 2 483 -89 99 -212 142 -340 119z"/>
<path d="M22133 3727 c-84 -42 -126 -108 -126 -197 0 -197 233 -297 371 -160
95 95 89 243 -12 324 -73 59 -157 71 -233 33z"/>
<path d="M22740 3573 c-54 -50 -43 -135 21 -169 43 -22 91 -11 123 27 82 97
-50 227 -144 142z"/>
<path d="M5150 3248 c-73 -28 -150 -106 -178 -178 -42 -112 -15 -254 64 -334
64 -64 169 -107 249 -101 233 18 369 263 262 471 -25 48 -89 108 -143 134 -70
34 -180 38 -254 8z"/>
<path d="M19918 3251 c-222 -87 -275 -375 -98 -534 157 -142 415 -85 503 111
32 74 30 180 -7 260 -69 149 -247 222 -398 163z"/>
<path d="M3584 2996 c-49 -28 -72 -61 -82 -116 -24 -132 120 -235 237 -169
142 80 95 294 -67 304 -37 2 -60 -3 -88 -19z"/>
<path d="M5756 2928 c-99 -36 -137 -163 -75 -248 88 -118 267 -74 294 72 22
119 -102 218 -219 176z"/>
<path d="M19414 2921 c-85 -39 -116 -135 -72 -221 59 -116 229 -115 286 1 41
82 7 184 -72 220 -52 23 -90 23 -142 0z"/>
<path d="M21713 2819 c-114 -57 -119 -223 -8 -287 32 -18 50 -22 92 -18 87 8
140 59 149 143 14 128 -118 220 -233 162z"/>
<path d="M4633 2700 c-69 -32 -102 -84 -98 -155 3 -60 20 -91 66 -125 99 -71
240 -12 256 107 17 128 -109 225 -224 173z"/>
</g>
</svg>
