<svg width="48" height="55" viewBox="0 0 48 55" fill="none" xmlns="http://www.w3.org/2000/svg">
<path d="M1.50646 42.8272V42.8282C1.50646 44.7841 3.09631 46.3698 5.05757 46.3698H11.2235V36.6784H1.50641L1.50646 42.8272ZM36.7763 45.4351L45.5563 36.6785H36.7762L36.7763 45.4351ZM42.9415 1.50249H36.7765V11.1938H46.4937V5.04523V5.0435C46.4937 3.08802 44.9041 1.50272 42.9433 1.50272H42.9416H42.9417L42.9415 1.50249ZM26.253 20.2028L27.3815 21.9097L29.6233 20.2814V31.0197H31.8483V17.2923H30.2982L26.253 20.2028ZM22.3298 23.8128V23.6913C22.8534 23.4086 23.2856 23.0193 23.6096 22.55L23.6176 22.5379C23.9463 22.0512 24.1423 21.4516 24.1423 20.8065C24.1423 20.7697 24.1416 20.7331 24.1404 20.6967L24.1406 20.702C24.1407 20.6886 24.1408 20.6729 24.1408 20.6571C24.1408 19.9603 23.9308 19.3126 23.5703 18.7733L23.5782 18.7857C23.1878 18.2109 22.6605 17.7558 22.0418 17.4609L22.0186 17.451C21.3868 17.1472 20.6446 16.9697 19.8609 16.9697C19.8306 16.9697 19.8005 16.97 19.7704 16.9705H19.775C19.7233 16.9682 19.6626 16.967 19.6016 16.967C18.6184 16.967 17.7124 17.2966 16.9887 17.851L16.9988 17.8435C16.3323 18.3575 15.8199 19.0401 15.5226 19.8278L15.5123 19.8588L17.5462 20.7037C17.7075 20.2344 17.9736 19.8364 18.318 19.5223L18.3202 19.5203C18.6755 19.2197 19.1393 19.0368 19.6459 19.0368C19.6853 19.0368 19.7245 19.038 19.7634 19.0401L19.758 19.0399C19.7855 19.0387 19.8176 19.038 19.8499 19.038C20.3947 19.038 20.8958 19.2246 21.2925 19.5373L21.2877 19.5336C21.6576 19.8306 21.8923 20.2823 21.8923 20.7887C21.8923 20.8094 21.892 20.8301 21.8912 20.8507L21.8913 20.8478C21.8922 20.87 21.8929 20.896 21.8929 20.922C21.8929 21.4812 21.6298 21.9792 21.2203 22.2994L21.2166 22.3023C20.7852 22.6344 20.2369 22.8346 19.6417 22.8346C19.6115 22.8346 19.5814 22.8342 19.5514 22.8331L19.5557 22.8332H18.493V24.8617H19.6795C19.7108 24.8605 19.7475 24.8598 19.7843 24.8598C20.4676 24.8598 21.097 25.0905 21.5983 25.4781L21.5915 25.473C22.0573 25.8285 22.3548 26.3833 22.3548 27.0073C22.3548 27.022 22.3547 27.0366 22.3543 27.0511V27.049C22.3546 27.0607 22.3548 27.0747 22.3548 27.0886C22.3548 27.6991 22.0733 28.2441 21.6326 28.6015L21.629 28.6043C21.1804 28.9848 20.5943 29.2163 19.9541 29.2163C19.934 29.2163 19.9139 29.216 19.894 29.2156H19.8969C19.8764 29.2162 19.8523 29.2165 19.828 29.2165C19.2128 29.2165 18.649 28.9965 18.2116 28.631L18.2155 28.6342C17.7363 28.2111 17.3905 27.6473 17.243 27.008L17.239 26.9872L15.1846 27.8323C15.4719 28.9232 16.1243 29.8316 17.001 30.4416L17.0159 30.4514C17.8149 31.0095 18.8071 31.3432 19.8774 31.3432H19.9H19.8988C19.9213 31.3434 19.9476 31.3436 19.9741 31.3436C20.8292 31.3436 21.6373 31.1425 22.3533 30.7851L22.3226 30.799C23.0195 30.4548 23.5909 29.9497 24.0035 29.3303L24.0133 29.3146C24.3981 28.7248 24.6268 28.0031 24.6268 27.2281C24.6268 27.2066 24.6266 27.1849 24.6263 27.1633V27.1666C24.627 27.141 24.6274 27.1109 24.6274 27.0807C24.6274 26.3364 24.3851 25.6486 23.9749 25.0914L23.9815 25.1008C23.5616 24.5346 23.0033 24.0931 22.3555 23.8222L22.3299 23.8127L22.3298 23.8128ZM35.8391 12.1286V1.50244H5.05686C3.09608 1.50244 1.50655 3.08774 1.50655 5.04331V5.04509V5.04499V35.7437H12.1609V12.1285L35.8391 12.1286ZM12.1609 46.3699H35.8391V35.7438H12.1609V46.3699ZM35.8391 12.1286H46.4935V35.7438H35.8391V12.1286Z" fill="#0F2537"/>
</svg>
